<svg width="500" height="312" viewBox="0 0 500 312" fill="none" xmlns="http://www.w3.org/2000/svg">
<g filter="url(#filter0_d_405_2)">
<path d="M196 138.574L142.714 288.186C142.104 289.901 143.914 291.473 145.527 290.629L245.072 238.486C245.653 238.182 246.347 238.182 246.928 238.486L346.473 290.629C348.086 291.473 349.896 289.901 349.286 288.186L296 138.574L247.828 30.1153C247.124 28.5311 244.876 28.5311 244.172 30.1153L196 138.574Z" fill="url(#paint0_linear_405_2)"/>
<path d="M243.68 235.829L146.398 286.786L198.788 139.687L246 33.3907L293.212 139.687L345.602 286.786L248.32 235.829C246.867 235.067 245.133 235.067 243.68 235.829ZM145.541 289.193L145.542 289.189C145.541 289.19 145.541 289.192 145.541 289.193L144.599 288.857L145.541 289.193Z" stroke="url(#paint1_linear_405_2)" stroke-opacity="0.6" stroke-width="6"/>
<g filter="url(#filter1_bi_405_2)">
<path d="M168.489 104.575L8.6639 61.7497C6.94281 61.2885 5.52331 63.1384 6.41421 64.6815L72.75 179.578L140.5 296.925C141.052 297.882 142.275 298.209 143.232 297.657L244.557 239.157C245.514 238.605 245.841 237.382 245.289 236.425L169.703 105.507C169.438 105.047 169.001 104.712 168.489 104.575Z" fill="url(#paint2_linear_405_2)"/>
<path d="M75.3481 178.078L10.2194 65.2723L167.312 107.365L242.191 237.059L142.598 294.559L75.3481 178.078Z" stroke="url(#paint3_linear_405_2)" stroke-opacity="0.6" stroke-width="6" stroke-linecap="round"/>
</g>
<g filter="url(#filter2_bi_405_2)">
<path d="M485.519 64.6815L351.434 296.925C350.881 297.882 349.658 298.209 348.702 297.657L247.377 239.157C246.42 238.605 246.092 237.382 246.645 236.425L322.23 105.507C322.496 105.047 322.932 104.712 323.445 104.575L483.27 61.7497C484.991 61.2885 486.41 63.1384 485.519 64.6815Z" fill="url(#paint4_linear_405_2)"/>
<path d="M249.743 237.059L349.336 294.559L481.714 65.2723L324.621 107.365L249.743 237.059Z" stroke="url(#paint5_linear_405_2)" stroke-opacity="0.6" stroke-width="6"/>
</g>
</g>
<defs>
<filter id="filter0_d_405_2" x="0.140015" y="22.927" width="499.654" height="288.998" filterUnits="userSpaceOnUse" color-interpolation-filters="sRGB">
<feFlood flood-opacity="0" result="BackgroundImageFix"/>
<feColorMatrix in="SourceAlpha" type="matrix" values="0 0 0 0 0 0 0 0 0 0 0 0 0 0 0 0 0 0 127 0" result="hardAlpha"/>
<feOffset dx="4" dy="4"/>
<feGaussianBlur stdDeviation="5"/>
<feComposite in2="hardAlpha" operator="out"/>
<feColorMatrix type="matrix" values="0 0 0 0 0 0 0 0 0 0 0 0 0 0 0 0 0 0 0.45 0"/>
<feBlend mode="normal" in2="BackgroundImageFix" result="effect1_dropShadow_405_2"/>
<feBlend mode="normal" in="SourceGraphic" in2="effect1_dropShadow_405_2" result="shape"/>
</filter>
<filter id="filter1_bi_405_2" x="-1.85999" y="53.6777" width="255.417" height="252.248" filterUnits="userSpaceOnUse" color-interpolation-filters="sRGB">
<feFlood flood-opacity="0" result="BackgroundImageFix"/>
<feGaussianBlur in="BackgroundImageFix" stdDeviation="4"/>
<feComposite in2="SourceAlpha" operator="in" result="effect1_backgroundBlur_405_2"/>
<feBlend mode="normal" in="SourceGraphic" in2="effect1_backgroundBlur_405_2" result="shape"/>
<feColorMatrix in="SourceAlpha" type="matrix" values="0 0 0 0 0 0 0 0 0 0 0 0 0 0 0 0 0 0 127 0" result="hardAlpha"/>
<feOffset dx="1" dy="8"/>
<feGaussianBlur stdDeviation="10"/>
<feComposite in2="hardAlpha" operator="arithmetic" k2="-1" k3="1"/>
<feColorMatrix type="matrix" values="0 0 0 0 0.968627 0 0 0 0 0.913725 0 0 0 0 0.972549 0 0 0 0.2 0"/>
<feBlend mode="normal" in2="shape" result="effect2_innerShadow_405_2"/>
</filter>
<filter id="filter2_bi_405_2" x="238.376" y="53.6777" width="255.417" height="252.248" filterUnits="userSpaceOnUse" color-interpolation-filters="sRGB">
<feFlood flood-opacity="0" result="BackgroundImageFix"/>
<feGaussianBlur in="BackgroundImageFix" stdDeviation="4"/>
<feComposite in2="SourceAlpha" operator="in" result="effect1_backgroundBlur_405_2"/>
<feBlend mode="normal" in="SourceGraphic" in2="effect1_backgroundBlur_405_2" result="shape"/>
<feColorMatrix in="SourceAlpha" type="matrix" values="0 0 0 0 0 0 0 0 0 0 0 0 0 0 0 0 0 0 127 0" result="hardAlpha"/>
<feOffset dx="1" dy="8"/>
<feGaussianBlur stdDeviation="10"/>
<feComposite in2="hardAlpha" operator="arithmetic" k2="-1" k3="1"/>
<feColorMatrix type="matrix" values="0 0 0 0 0.968627 0 0 0 0 0.913725 0 0 0 0 0.972549 0 0 0 0.2 0"/>
<feBlend mode="normal" in2="shape" result="effect2_innerShadow_405_2"/>
</filter>
<linearGradient id="paint0_linear_405_2" x1="246" y1="111.5" x2="196" y2="170.5" gradientUnits="userSpaceOnUse">
<stop stop-color="#9489A2"/>
<stop offset="1" stop-color="#ECBCEE"/>
</linearGradient>
<linearGradient id="paint1_linear_405_2" x1="201.254" y1="21.2632" x2="258.076" y2="248.601" gradientUnits="userSpaceOnUse">
<stop offset="0.447848" stop-color="white"/>
<stop offset="1" stop-color="white" stop-opacity="0"/>
</linearGradient>
<linearGradient id="paint2_linear_405_2" x1="296.806" y1="273.654" x2="44.2583" y2="104.229" gradientUnits="userSpaceOnUse">
<stop stop-color="#2C0261" stop-opacity="0.5"/>
<stop offset="1" stop-color="#1FD0D9"/>
</linearGradient>
<linearGradient id="paint3_linear_405_2" x1="6.43359" y1="52" x2="220.434" y2="266" gradientUnits="userSpaceOnUse">
<stop offset="0.447848" stop-color="white"/>
<stop offset="1" stop-color="white" stop-opacity="0"/>
</linearGradient>
<linearGradient id="paint4_linear_405_2" x1="195.128" y1="273.654" x2="447.675" y2="104.229" gradientUnits="userSpaceOnUse">
<stop stop-color="#2C0261" stop-opacity="0.5"/>
<stop offset="1" stop-color="#1FD0D9"/>
</linearGradient>
<linearGradient id="paint5_linear_405_2" x1="485.5" y1="52" x2="271.5" y2="266" gradientUnits="userSpaceOnUse">
<stop offset="0.447848" stop-color="white"/>
<stop offset="1" stop-color="white" stop-opacity="0"/>
</linearGradient>
</defs>
</svg>
