<svg width="22" height="24" viewBox="0 0 22 24" fill="none" xmlns="http://www.w3.org/2000/svg">
<path fill-rule="evenodd" clip-rule="evenodd" d="M14.996 24H2.39098C2.39098 24 3.12498 20.069 3.02398 18.314C2.98298 17.59 2.86298 16.84 2.48398 16.21C1.83898 15.21 -0.152018 12.49 0.00898166 8.77998C0.232982 3.57098 4.70198 0.000976562 10.135 0.000976562C15.233 0.000976562 18.642 3.00198 19.993 7.48398C20.321 8.56298 20.304 9.02498 19.842 10.091L19.836 10.104L21.587 12.246C21.847 12.627 22 13.037 22 13.485C22 14.032 21.767 14.53 21.39 14.884C21.022 15.229 20.623 15.336 20.142 15.526C20.142 15.526 19.566 18.118 19.269 18.817C18.569 20.46 17.299 20.476 16.299 20.666C15.905 20.749 15.809 20.799 15.618 21.347C15.41 21.938 15.255 22.782 14.996 24ZM10.154 1.99998C5.86898 2.04798 2.41398 4.54798 2.03298 8.48798C1.84098 10.479 2.49598 12.474 3.54898 14.193C4.15998 15.193 4.85398 15.785 5.01298 18.068C5.10398 19.381 4.96298 20.704 4.77198 22H13.376C13.517 21.355 13.726 20.515 14.063 19.943C14.512 19.177 15.16 18.844 15.989 18.689C16.827 18.541 17.227 18.63 17.478 17.904C17.69 17.325 18.09 15.683 18.309 14.002C19.512 13.667 18.921 13.841 19.98 13.443C19.774 13.209 18.062 11.129 17.935 10.843C17.599 10.084 17.889 9.65298 18.16 8.92998C18.246 8.67898 18.22 8.57298 18.151 8.31698C17.102 4.36798 14.26 1.99998 10.154 1.99998ZM10.217 16H9.76998C9.65298 16 9.53898 15.961 9.46198 15.891L8.86798 15.5H11.118L10.524 15.891C10.448 15.96 10.335 16 10.217 16ZM11.139 15H8.85998C8.72198 15 8.60998 14.889 8.60998 14.75C8.60998 14.612 8.72198 14.5 8.85998 14.5H11.139C11.277 14.5 11.389 14.612 11.389 14.75C11.389 14.888 11.278 15 11.139 15ZM9.81698 14.014H8.40298C8.38998 11.444 6.99998 11.136 6.99998 9.36698C6.99998 7.67198 8.32698 6.51498 9.99998 6.51498H10.02C11.683 6.52398 13 7.67798 13 9.36698C13 11.136 11.609 11.444 11.596 14.014H10.182C10.182 11.279 11.5 10.4 11.5 9.36298C11.5 8.50698 10.806 8.02998 9.99998 8.01498H9.98098C9.18298 8.03698 8.49998 8.51398 8.49998 9.36298C8.49998 10.4 9.81698 11.279 9.81698 14.014ZM13.87 10.386L15.219 10.998L14.805 11.909L13.507 11.32C13.658 11.02 13.783 10.713 13.87 10.386ZM6.13098 10.386C6.21698 10.718 6.33898 11.016 6.48998 11.321L5.19398 11.909L4.78098 10.998L6.13098 10.386ZM15.5 9.49998H13.999C14.009 9.16498 13.978 8.82798 13.906 8.49998H15.5V9.49998ZM6.00098 9.49998H4.49998V8.49998H6.09298C6.02198 8.82698 5.99198 9.16298 6.00098 9.49798V9.49998ZM13.021 6.78598L14.264 5.90498L14.843 6.71998L13.591 7.60898C13.444 7.31798 13.255 7.04298 13.021 6.78598ZM6.97798 6.78598C6.74798 7.03698 6.55998 7.31098 6.40898 7.60798L5.15798 6.71998L5.73598 5.90498L6.97798 6.78598ZM11.413 5.73998L12.076 4.39498L12.972 4.83698L12.309 6.18198C12.031 5.99898 11.728 5.84998 11.413 5.73998ZM8.58698 5.73898C8.27098 5.84898 7.96898 5.99698 7.68998 6.18098L7.02698 4.83698L7.92398 4.39498L8.58698 5.73898ZM10.5 5.53098C10.166 5.49198 9.84598 5.48998 9.49998 5.52898V3.99998H10.5V5.53098Z" fill="white"/>
</svg>
