<svg width="22" height="24" viewBox="0 0 22 24" fill="none" xmlns="http://www.w3.org/2000/svg">
<path fill-rule="evenodd" clip-rule="evenodd" d="M14.517 24.0001H2.871C3.393 20.9651 3.768 17.8381 2.449 15.9721C0.783001 13.6151 0.0190009 11.2301 9.00531e-07 9.08912C-0.0449991 3.89912 4.231 -0.0248812 10.203 0.000118786C17.439 0.0301188 19.531 6.15612 19.976 7.94312C20.316 9.31212 19.078 9.81212 19.81 10.6451C20.406 11.3241 20.845 12.0091 21.599 12.8221C21.891 13.1371 22.004 13.4681 22 13.7651C21.994 14.1991 21.709 14.5631 21.252 14.7231C20.823 14.8731 20.492 15.0431 20.037 15.1661C19.892 16.3261 19.516 17.7381 19.239 18.7231C18.502 21.3431 16.343 19.7821 15.358 21.3301C14.932 21.9981 14.718 23.0681 14.517 24.0001ZM10.224 15.6841C10.341 15.6831 10.454 15.6441 10.531 15.5751L11.125 15.1841H8.875L9.469 15.5751C9.546 15.6441 9.659 15.6841 9.777 15.6841H10.224ZM11.146 14.6841C11.284 14.6831 11.396 14.5721 11.396 14.4341C11.396 14.2961 11.284 14.1841 11.146 14.1841H8.867C8.729 14.1841 8.617 14.2961 8.617 14.4341C8.617 14.5721 8.729 14.6841 8.867 14.6841H11.146ZM11.393 13.6841C11.393 11.6811 13 10.8541 13 9.07012C13 7.21012 11.499 6.18412 9.999 6.18412C8.499 6.18412 7 7.20812 7 9.07012C7 10.8541 8.607 11.7091 8.607 13.6841H11.393ZM13.87 10.0691L15.219 10.6811L14.806 11.5921L13.507 11.0041C13.658 10.7041 13.783 10.3961 13.87 10.0691ZM6.131 10.0691C6.218 10.4011 6.339 10.7001 6.491 11.0041L5.195 11.5921L4.781 10.6811L6.131 10.0691ZM15.5 9.18412V8.18412H13.906C13.979 8.51112 14.009 8.84912 13.999 9.18412H15.5ZM6.002 9.18412V9.18112C5.992 8.84712 6.022 8.51112 6.094 8.18412H4.5V9.18412H6.002ZM13.022 6.47012L14.264 5.58812L14.843 6.40412L13.591 7.29212C13.445 7.00112 13.255 6.72612 13.022 6.47012ZM6.978 6.46912C6.748 6.72112 6.56 6.99412 6.409 7.29212L5.158 6.40412L5.736 5.58812L6.978 6.46912ZM11.413 5.42312L12.076 4.07812L12.973 4.52112L12.309 5.86612C12.031 5.68212 11.729 5.53412 11.413 5.42312ZM8.587 5.42212C8.272 5.53212 7.969 5.68012 7.69 5.86412L7.027 4.52112L7.924 4.07812L8.587 5.42212ZM10.5 5.21412C10.166 5.17512 9.846 5.17312 9.5 5.21312V3.68412H10.5V5.21412Z" fill="#737373"/>
</svg>
